<?xml version="1.0" standalone="no"?>
<!DOCTYPE svg PUBLIC "-//W3C//DTD SVG 20010904//EN"
 "http://www.w3.org/TR/2001/REC-SVG-20010904/DTD/svg10.dtd">
<svg version="1.0" xmlns="http://www.w3.org/2000/svg"
 width="512.000000pt" height="512.000000pt" viewBox="0 0 512.000000 512.000000"
 preserveAspectRatio="xMidYMid meet">
<metadata>
Created by potrace 1.14, written by Peter Selinger 2001-2017
</metadata>
<g transform="translate(0.000000,512.000000) scale(0.100000,-0.100000)"
fill="#000000" stroke="none">
<path d="M2440 4964 c-198 -51 -367 -205 -429 -392 -36 -106 -42 -168 -27
-296 4 -38 2 -46 -12 -47 -9 0 -26 -2 -37 -5 -11 -2 -38 -6 -60 -9 -79 -11
-114 -25 -135 -56 -20 -27 -21 -38 -16 -117 8 -113 19 -297 20 -342 1 -32 -1
-35 -29 -36 -16 -1 -153 -5 -303 -9 -150 -4 -292 -8 -316 -10 -25 -1 -48 1
-53 4 -5 3 -44 86 -86 184 l-78 178 25 30 c65 77 53 193 -26 252 -47 35 -59
38 -233 52 -44 4 -91 8 -105 10 -14 2 -61 7 -105 10 -44 3 -97 8 -119 11 -183
24 -250 4 -297 -88 -24 -47 -24 -101 0 -154 33 -73 88 -97 246 -108 44 -4 96
-8 115 -10 49 -6 168 -18 210 -21 134 -11 186 -17 192 -23 4 -4 70 -153 148
-332 78 -179 147 -338 155 -355 7 -16 115 -264 240 -550 276 -632 253 -581
300 -690 47 -108 72 -151 115 -193 64 -65 178 -112 258 -106 l34 2 -48 -51
c-70 -72 -64 -64 -155 -197 -46 -66 -117 -169 -158 -227 -80 -116 -102 -169
-96 -233 6 -55 43 -127 80 -155 25 -19 103 -58 113 -56 1 1 34 1 73 1 l70 0
-39 -47 c-219 -268 -10 -669 334 -641 149 12 283 110 339 248 24 59 29 191 10
255 -17 56 -53 118 -90 158 l-26 27 592 0 591 0 -37 -41 c-55 -61 -87 -140
-93 -223 -10 -169 73 -313 224 -387 64 -32 75 -34 164 -34 74 1 107 6 150 23
155 61 253 214 246 380 -5 105 -37 183 -104 254 l-26 28 103 0 c104 0 140 10
185 49 87 77 55 238 -57 280 -18 7 -402 11 -1189 11 -639 0 -1163 2 -1164 3
-3 3 64 108 75 117 3 3 23 31 44 63 52 80 120 142 193 178 58 29 99 38 374 83
19 3 46 8 60 10 14 2 59 10 100 16 41 6 86 13 100 16 14 2 149 24 300 49 151
25 286 48 299 50 13 2 45 7 70 11 25 4 55 8 66 10 65 12 244 42 300 50 70 9
105 25 140 61 47 48 61 110 38 172 -7 18 -13 35 -13 36 0 1 35 8 78 15 42 7
86 14 97 15 11 2 36 6 55 9 269 40 318 56 363 119 47 65 46 55 47 722 0 615 0
636 -20 674 -11 22 -34 50 -52 63 -32 22 -41 23 -209 23 l-177 0 -28 115 c-28
119 -43 158 -66 178 -21 17 -67 20 -130 7 l-57 -12 -12 51 c-43 186 -189 333
-370 372 -45 9 -154 6 -198 -6 -33 -9 -50 -9 -72 0 -19 8 -45 10 -76 5 -27 -5
-55 -9 -63 -10 -8 -1 -32 -5 -52 -9 -35 -6 -38 -5 -43 21 -29 143 -71 237
-142 321 -54 63 -148 132 -223 162 -30 12 -66 27 -80 32 -40 17 -237 19 -300
2z m272 -99 c90 -23 157 -62 228 -134 71 -71 109 -139 134 -236 26 -99 31 -94
-99 -111 -48 -6 -59 -8 -115 -18 -14 -3 -43 -8 -65 -11 -88 -13 -116 -17 -270
-41 -88 -13 -215 -33 -281 -44 -143 -23 -160 -24 -162 -7 -8 107 -7 172 5 222
36 158 152 297 299 360 53 23 169 43 224 38 25 -2 71 -10 102 -18z m1040 -547
c72 -33 145 -106 179 -178 28 -58 45 -130 32 -130 -4 0 -44 -7 -88 -14 -73
-13 -138 -24 -190 -31 -11 -1 -38 -5 -61 -9 l-40 -6 -42 172 c-23 95 -45 183
-48 195 -8 27 13 32 121 29 62 -2 93 -8 137 -28z m934 -693 l24 -15 -1 -413
c0 -406 -1 -411 -19 -372 -183 404 -266 617 -303 785 l-6 25 140 3 c115 3 145
0 165 -13z m-2939 -68 c3 -4 7 -22 8 -39 6 -98 17 -268 20 -303 2 -22 6 -92
10 -155 4 -63 10 -119 13 -125 3 -7 1 -7 -5 0 -10 9 -273 608 -273 620 0 2 39
6 88 7 111 4 130 3 139 -5z m-338 -13 c5 -5 43 -88 84 -184 79 -184 206 -477
237 -545 62 -138 81 -193 85 -249 2 -34 7 -90 10 -126 2 -36 7 -110 10 -165
15 -253 24 -284 97 -325 35 -20 50 -22 110 -17 l69 6 15 -36 c8 -19 13 -37 11
-39 -10 -10 -108 -22 -159 -19 -74 4 -151 45 -192 103 -17 24 -52 91 -77 150
-25 59 -175 404 -332 768 -158 364 -287 666 -287 671 0 6 56 11 137 12 76 1
139 4 141 6 6 6 32 -1 41 -11z m3238 -866 c66 -148 69 -161 67 -218 -1 -25 -2
-62 -3 -82 -2 -57 -42 -95 -114 -110 -54 -12 -60 -11 -73 7 -21 29 -17 45 11
45 57 0 119 54 130 114 4 21 -7 87 -34 195 -23 90 -44 169 -48 175 -3 6 -3 8
2 4 4 -4 32 -63 62 -130z m-232 -408 c9 -16 12 -30 8 -31 -13 -1 -60 -9 -169
-28 l-102 -17 -15 32 -16 32 46 7 c24 3 52 8 61 10 10 1 39 6 67 9 27 4 51 9
54 12 2 2 15 4 27 4 16 0 29 -10 39 -30z m-380 -67 l14 -33 -32 -2 c-36 -1
-39 -2 -87 -11 -19 -3 -51 -9 -70 -12 -19 -3 -47 -8 -63 -11 -24 -5 -29 -1
-41 28 l-14 33 36 6 c20 4 57 10 82 13 25 4 63 10 85 15 64 12 76 8 90 -26z
m-382 -56 c5 -16 7 -30 6 -32 -2 -2 -22 -6 -44 -9 -48 -8 -89 -14 -130 -21
-106 -18 -102 -18 -107 1 -3 11 -9 26 -12 35 -6 13 5 18 66 28 40 6 96 15 123
20 73 13 87 10 98 -22z m-383 -57 c7 -17 11 -32 9 -35 -6 -5 -235 -45 -259
-45 -16 0 -47 57 -36 67 2 2 21 6 42 9 22 2 73 11 114 18 112 21 116 20 130
-14z m-377 -65 c12 -26 13 -35 4 -36 -6 0 -21 -2 -32 -4 -62 -12 -154 -28
-180 -31 -16 -3 -36 -7 -42 -9 -12 -4 -48 63 -40 71 5 5 103 23 162 30 28 4
52 8 54 10 2 2 16 4 31 4 20 0 30 -8 43 -35z m-389 -45 c3 -11 9 -29 12 -40 4
-17 1 -20 -23 -20 -15 0 -75 -9 -133 -19 -58 -11 -106 -19 -106 -18 -1 1 -11
18 -22 39 l-21 36 32 6 c18 3 52 9 77 12 25 3 61 10 80 14 65 15 98 12 104
-10z"/>
<path d="M1595 4639 c-13 -44 -57 -91 -103 -111 l-45 -20 39 -18 c47 -21 87
-63 106 -110 l15 -35 12 36 c15 45 65 94 116 113 22 8 33 15 24 15 -36 2 -108
61 -132 107 -23 46 -25 47 -32 23z"/>
<path d="M1230 4091 c-20 -49 -2 -76 57 -87 19 -3 53 35 53 60 0 31 -30 56
-67 56 -24 0 -33 -6 -43 -29z"/>
<path d="M1130 2382 c-45 -14 -63 -60 -37 -93 43 -56 131 -2 98 60 -14 25 -41
40 -61 33z"/>
<path d="M4944 2037 c-26 -14 -34 -27 -34 -59 0 -16 -3 -28 -7 -29 -71 -6 -97
-27 -87 -69 6 -26 27 -43 57 -46 9 -1 22 -2 27 -3 6 0 10 -14 10 -30 0 -30 21
-60 43 -62 43 -4 67 19 67 63 0 15 6 29 13 29 6 1 17 2 22 4 6 1 18 3 27 3 23
2 41 38 34 67 -6 23 -51 49 -77 43 -8 -2 -14 5 -15 17 -2 57 -41 93 -80 72z"/>
<path d="M4725 1548 c-39 -30 -33 -73 14 -98 48 -25 103 49 66 90 -25 27 -52
30 -80 8z"/>
</g>
</svg>
